# 3ds Max Wavefront OBJ Exporter v0.97b - (c)2007 guruware
# File Created: 03.06.2013 16:12:59

#
# object Cylinder001
#

v  0.025000 0.000000 0.000000
v  0.024520 0.004877 0.000000
v  0.024520 0.004877 0.800000
v  0.025000 0.000000 0.800000
v  0.023097 0.009567 0.000000
v  0.023097 0.009567 0.800000
v  0.020787 0.013889 0.000000
v  0.020787 0.013889 0.800000
v  0.017678 0.017678 0.000000
v  0.017678 0.017678 0.800000
v  0.013889 0.020787 0.000000
v  0.013889 0.020787 0.800000
v  0.009567 0.023097 0.000000
v  0.009567 0.023097 0.800000
v  0.004877 0.024520 0.000000
v  0.004877 0.024520 0.800000
v  0.000000 0.025000 0.000000
v  0.000000 0.025000 0.800000
v  -0.004877 0.024520 0.000000
v  -0.004877 0.024520 0.800000
v  -0.009567 0.023097 0.000000
v  -0.009567 0.023097 0.800000
v  -0.013889 0.020787 0.000000
v  -0.013889 0.020787 0.800000
v  -0.017678 0.017678 0.000000
v  -0.017678 0.017678 0.800000
v  -0.020787 0.013889 0.000000
v  -0.020787 0.013889 0.800000
v  -0.023097 0.009567 0.000000
v  -0.023097 0.009567 0.800000
v  -0.024520 0.004877 0.000000
v  -0.024520 0.004877 0.800000
v  -0.025000 -0.000000 0.000000
v  -0.025000 -0.000000 0.800000
v  -0.024520 -0.004877 0.000000
v  -0.024520 -0.004877 0.800000
v  -0.023097 -0.009567 0.000000
v  -0.023097 -0.009567 0.800000
v  -0.020787 -0.013889 0.000000
v  -0.020787 -0.013889 0.800000
v  -0.017678 -0.017678 0.000000
v  -0.017678 -0.017678 0.800000
v  -0.013889 -0.020787 0.000000
v  -0.013889 -0.020787 0.800000
v  -0.009567 -0.023097 0.000000
v  -0.009567 -0.023097 0.800000
v  -0.004877 -0.024520 0.000000
v  -0.004877 -0.024520 0.800000
v  0.000000 -0.025000 0.000000
v  0.000000 -0.025000 0.800000
v  0.004877 -0.024520 0.000000
v  0.004877 -0.024520 0.800000
v  0.009567 -0.023097 0.000000
v  0.009567 -0.023097 0.800000
v  0.013889 -0.020787 0.000000
v  0.013889 -0.020787 0.800000
v  0.017678 -0.017678 0.000000
v  0.017678 -0.017678 0.800000
v  0.020787 -0.013889 0.000000
v  0.020787 -0.013889 0.800000
v  0.023097 -0.009567 0.000000
v  0.023097 -0.009567 0.800000
v  0.024520 -0.004877 0.000000
v  0.024520 -0.004877 0.800000
v  0.049108 0.009768 0.800000
v  0.050070 -0.000000 0.800000
v  0.046258 0.019161 0.800000
v  0.041631 0.027817 0.800000
v  0.035405 0.035405 0.800000
v  0.027817 0.041631 0.800000
v  0.019161 0.046258 0.800000
v  0.009768 0.049108 0.800000
v  -0.000000 0.050070 0.800000
v  -0.009768 0.049108 0.800000
v  -0.019161 0.046258 0.800000
v  -0.027817 0.041631 0.800000
v  -0.035405 0.035405 0.800000
v  -0.041631 0.027817 0.800000
v  -0.046258 0.019161 0.800000
v  -0.049108 0.009768 0.800000
v  -0.050070 -0.000000 0.800000
v  -0.049108 -0.009768 0.800000
v  -0.046258 -0.019161 0.800000
v  -0.041631 -0.027817 0.800000
v  -0.035405 -0.035405 0.800000
v  -0.027817 -0.041631 0.800000
v  -0.019161 -0.046258 0.800000
v  -0.009768 -0.049108 0.800000
v  0.000000 -0.050070 0.800000
v  0.009768 -0.049108 0.800000
v  0.019161 -0.046258 0.800000
v  0.027817 -0.041631 0.800000
v  0.035405 -0.035405 0.800000
v  0.041631 -0.027817 0.800000
v  0.046258 -0.019161 0.800000
v  0.049108 -0.009768 0.800000
v  0.000000 -0.000099 0.999843
# 97 vertices

vn 1.000000 0.000000 0.000000
vn 0.980785 0.195090 0.000000
vn 0.923880 0.382683 0.000000
vn 0.831470 0.555570 0.000000
vn 0.707107 0.707107 0.000000
vn 0.555570 0.831470 0.000000
vn 0.382683 0.923880 0.000000
vn 0.195090 0.980785 0.000000
vn 0.000000 1.000000 0.000000
vn -0.195090 0.980785 0.000000
vn -0.382683 0.923880 0.000000
vn -0.555570 0.831470 0.000000
vn -0.707107 0.707107 0.000000
vn -0.831470 0.555570 0.000000
vn -0.923880 0.382683 0.000000
vn -0.980785 0.195090 0.000000
vn -1.000000 -0.000000 0.000000
vn -0.980785 -0.195091 0.000000
vn -0.923879 -0.382684 0.000000
vn -0.831469 -0.555571 0.000000
vn -0.707106 -0.707107 0.000000
vn -0.555570 -0.831470 0.000000
vn -0.382683 -0.923880 0.000000
vn -0.195089 -0.980785 0.000000
vn 0.000001 -1.000000 0.000000
vn 0.195091 -0.980785 0.000000
vn 0.382685 -0.923879 0.000000
vn 0.555571 -0.831469 0.000000
vn 0.707108 -0.707106 0.000000
vn 0.831470 -0.555569 0.000000
vn 0.923880 -0.382682 0.000000
vn 0.980785 -0.195089 0.000000
vn 0.000000 0.000000 -1.000000
vn 0.970018 0.000029 0.243034
vn 0.951352 0.189264 0.243122
vn -0.000001 -0.000466 1.000000
vn 0.896130 0.371218 0.243207
vn 0.806475 0.538898 0.243285
vn 0.685836 0.685864 0.243353
vn 0.538848 0.806471 0.243409
vn 0.371160 0.896087 0.243451
vn 0.189214 0.951271 0.243476
vn 0.000000 0.969905 0.243485
vn -0.189214 0.951271 0.243476
vn -0.371160 0.896087 0.243451
vn -0.538847 0.806471 0.243409
vn -0.685835 0.685864 0.243353
vn -0.806475 0.538898 0.243285
vn -0.896130 0.371217 0.243207
vn -0.951352 0.189264 0.243122
vn -0.970018 0.000028 0.243034
vn -0.951406 -0.189218 0.242946
vn -0.896229 -0.371203 0.242861
vn -0.806605 -0.538929 0.242783
vn -0.685976 -0.685949 0.242715
vn -0.538978 -0.806610 0.242659
vn -0.371259 -0.896272 0.242617
vn -0.189267 -0.951487 0.242591
vn 0.000001 -0.970131 0.242582
vn 0.189269 -0.951487 0.242591
vn 0.371261 -0.896271 0.242617
vn 0.538979 -0.806609 0.242658
vn 0.685978 -0.685948 0.242715
vn 0.806606 -0.538927 0.242783
vn 0.896230 -0.371201 0.242861
vn 0.951406 -0.189217 0.242946
# 66 vertex normals

g Cylinder001
f 1//1 2//2 3//2 
f 3//2 4//1 1//1 
f 2//2 5//3 6//3 
f 6//3 3//2 2//2 
f 5//3 7//4 8//4 
f 8//4 6//3 5//3 
f 7//4 9//5 10//5 
f 10//5 8//4 7//4 
f 9//5 11//6 12//6 
f 12//6 10//5 9//5 
f 11//6 13//7 14//7 
f 14//7 12//6 11//6 
f 13//7 15//8 16//8 
f 16//8 14//7 13//7 
f 15//8 17//9 18//9 
f 18//9 16//8 15//8 
f 17//9 19//10 20//10 
f 20//10 18//9 17//9 
f 19//10 21//11 22//11 
f 22//11 20//10 19//10 
f 21//11 23//12 24//12 
f 24//12 22//11 21//11 
f 23//12 25//13 26//13 
f 26//13 24//12 23//12 
f 25//13 27//14 28//14 
f 28//14 26//13 25//13 
f 27//14 29//15 30//15 
f 30//15 28//14 27//14 
f 29//15 31//16 32//16 
f 32//16 30//15 29//15 
f 31//16 33//17 34//17 
f 34//17 32//16 31//16 
f 33//17 35//18 36//18 
f 36//18 34//17 33//17 
f 35//18 37//19 38//19 
f 38//19 36//18 35//18 
f 37//19 39//20 40//20 
f 40//20 38//19 37//19 
f 39//20 41//21 42//21 
f 42//21 40//20 39//20 
f 41//21 43//22 44//22 
f 44//22 42//21 41//21 
f 43//22 45//23 46//23 
f 46//23 44//22 43//22 
f 45//23 47//24 48//24 
f 48//24 46//23 45//23 
f 47//24 49//25 50//25 
f 50//25 48//24 47//24 
f 49//25 51//26 52//26 
f 52//26 50//25 49//25 
f 51//26 53//27 54//27 
f 54//27 52//26 51//26 
f 53//27 55//28 56//28 
f 56//28 54//27 53//27 
f 55//28 57//29 58//29 
f 58//29 56//28 55//28 
f 57//29 59//30 60//30 
f 60//30 58//29 57//29 
f 59//30 61//31 62//31 
f 62//31 60//30 59//30 
f 61//31 63//32 64//32 
f 64//32 62//31 61//31 
f 63//32 1//1 4//1 
f 4//1 64//32 63//32 
f 61//33 59//33 57//33 
f 57//33 55//33 53//33 
f 53//33 51//33 49//33 
f 57//33 53//33 49//33 
f 49//33 47//33 45//33 
f 45//33 43//33 41//33 
f 49//33 45//33 41//33 
f 41//33 39//33 37//33 
f 37//33 35//33 33//33 
f 41//33 37//33 33//33 
f 49//33 41//33 33//33 
f 33//33 31//33 29//33 
f 29//33 27//33 25//33 
f 33//33 29//33 25//33 
f 25//33 23//33 21//33 
f 21//33 19//33 17//33 
f 25//33 21//33 17//33 
f 33//33 25//33 17//33 
f 17//33 15//33 13//33 
f 13//33 11//33 9//33 
f 17//33 13//33 9//33 
f 9//33 7//33 5//33 
f 5//33 2//33 1//33 
f 9//33 5//33 1//33 
f 17//33 9//33 1//33 
f 33//33 17//33 1//33 
f 49//33 33//33 1//33 
f 57//33 49//33 1//33 
f 61//33 57//33 1//33 
f 63//33 61//33 1//33 
f 4//33 3//33 65//33 
f 65//33 66//33 4//33 
f 3//33 6//33 67//33 
f 67//33 65//33 3//33 
f 6//33 8//33 68//33 
f 68//33 67//33 6//33 
f 8//33 10//33 69//33 
f 69//33 68//33 8//33 
f 10//33 12//33 70//33 
f 70//33 69//33 10//33 
f 12//33 14//33 71//33 
f 71//33 70//33 12//33 
f 14//33 16//33 72//33 
f 72//33 71//33 14//33 
f 16//33 18//33 73//33 
f 73//33 72//33 16//33 
f 18//33 20//33 74//33 
f 74//33 73//33 18//33 
f 20//33 22//33 75//33 
f 75//33 74//33 20//33 
f 22//33 24//33 76//33 
f 76//33 75//33 22//33 
f 24//33 26//33 77//33 
f 77//33 76//33 24//33 
f 26//33 28//33 78//33 
f 78//33 77//33 26//33 
f 28//33 30//33 79//33 
f 79//33 78//33 28//33 
f 30//33 32//33 80//33 
f 80//33 79//33 30//33 
f 32//33 34//33 81//33 
f 81//33 80//33 32//33 
f 34//33 36//33 82//33 
f 82//33 81//33 34//33 
f 36//33 38//33 83//33 
f 83//33 82//33 36//33 
f 38//33 40//33 84//33 
f 84//33 83//33 38//33 
f 40//33 42//33 85//33 
f 85//33 84//33 40//33 
f 42//33 44//33 86//33 
f 86//33 85//33 42//33 
f 44//33 46//33 87//33 
f 87//33 86//33 44//33 
f 46//33 48//33 88//33 
f 88//33 87//33 46//33 
f 48//33 50//33 89//33 
f 89//33 88//33 48//33 
f 50//33 52//33 90//33 
f 90//33 89//33 50//33 
f 52//33 54//33 91//33 
f 91//33 90//33 52//33 
f 54//33 56//33 92//33 
f 92//33 91//33 54//33 
f 56//33 58//33 93//33 
f 93//33 92//33 56//33 
f 58//33 60//33 94//33 
f 94//33 93//33 58//33 
f 60//33 62//33 95//33 
f 95//33 94//33 60//33 
f 62//33 64//33 96//33 
f 96//33 95//33 62//33 
f 64//33 4//33 66//33 
f 66//33 96//33 64//33 
f 66//34 65//35 97//36 
f 65//35 67//37 97//36 
f 67//37 68//38 97//36 
f 68//38 69//39 97//36 
f 69//39 70//40 97//36 
f 70//40 71//41 97//36 
f 71//41 72//42 97//36 
f 72//42 73//43 97//36 
f 73//43 74//44 97//36 
f 74//44 75//45 97//36 
f 75//45 76//46 97//36 
f 76//46 77//47 97//36 
f 77//47 78//48 97//36 
f 78//48 79//49 97//36 
f 79//49 80//50 97//36 
f 80//50 81//51 97//36 
f 81//51 82//52 97//36 
f 82//52 83//53 97//36 
f 83//53 84//54 97//36 
f 84//54 85//55 97//36 
f 85//55 86//56 97//36 
f 86//56 87//57 97//36 
f 87//57 88//58 97//36 
f 88//58 89//59 97//36 
f 89//59 90//60 97//36 
f 90//60 91//61 97//36 
f 91//61 92//62 97//36 
f 92//62 93//63 97//36 
f 93//63 94//64 97//36 
f 94//64 95//65 97//36 
f 95//65 96//66 97//36 
f 96//66 66//34 97//36 
# 190 faces

